<?xml version="1.0" encoding="iso-8859-1"?>
<!-- Uploaded to: SVG Repo, www.svgrepo.com, Generator: SVG Repo Mixer Tools -->
<!DOCTYPE svg PUBLIC "-//W3C//DTD SVG 1.1//EN" "http://www.w3.org/Graphics/SVG/1.1/DTD/svg11.dtd">
<svg fill="#000000" height="800px" width="800px" version="1.1" id="Capa_1" xmlns="http://www.w3.org/2000/svg" xmlns:xlink="http://www.w3.org/1999/xlink" 
	 viewBox="0 0 297.916 297.916" xml:space="preserve">
<g>
	<path d="M289.915,148.124c3.285,0,6.235-2.008,7.441-5.063c1.206-3.056,0.421-6.538-1.979-8.781L154.88,2.947
		c-3.074-2.873-7.852-2.873-10.926,0L3.455,134.279c-2.399,2.243-3.185,5.726-1.979,8.781c1.205,3.056,4.156,5.063,7.441,5.063
		h7.916v100.32C6.833,251.789,0,261.136,0,272.124c0,13.785,11.381,25,25.167,25h247c13.785,0,24.833-11.215,24.833-25
		c0-10.987-7.167-20.335-17.167-23.68v-100.32H289.915z M272.167,281.124h-247c-4.963,0-9-4.037-9-9c0-4.963,4.037-9,9-9h247
		c4.963,0,9,4.037,9,9C281.167,277.087,277.129,281.124,272.167,281.124z M269.642,132.124H218.54l-29.954-28h51.103
		L269.642,132.124z M59.146,104.124h51.103l-29.954,28H29.191L59.146,104.124z M111.194,55.472l25.745,23.703l-9.572,8.948H76.263
		L111.194,55.472z M222.571,88.124h-51.102l-9.573-8.948l25.744-23.704L222.571,88.124z M231.482,166.124H214.27l-59.39-55.516
		c-3.074-2.873-7.852-2.873-10.926,0l-59.39,55.516H67.353l82.064-76.71L231.482,166.124z M156.833,247.124h-17v-49h17V247.124z
		 M172.833,247.124v-57c0-4.418-3.249-8-7.667-8h-33c-4.418,0-8.333,3.582-8.333,8v57h-40v-65h3.889c2.028,0,3.981-0.77,5.463-2.155
		l56.232-52.564l56.232,52.564c1.481,1.385,3.435,2.155,5.463,2.155h1.721v65H172.833z M156.833,61.781V26.986l18.752,17.528
		L156.833,61.781z M140.833,61.318l-18.25-16.804l18.25-17.059V61.318z M63.179,148.124l-21.563,20.155
		c-2.399,2.243-3.185,5.726-1.979,8.781c1.205,3.056,4.156,5.063,7.441,5.063h20.754v65h-35v-99H63.179z M228.833,247.124v-65
		h22.922c0.006-0.001,0.012-0.001,0.02,0c4.419,0,8-3.582,8-8c0-2.476-1.124-4.688-2.89-6.156l-21.229-19.844h28.177v99H228.833z"/>
</g>
</svg>